<?xml version="1.0" encoding="UTF-8" standalone="no"?>
<!DOCTYPE svg PUBLIC "-//W3C//DTD SVG 1.1//EN" "http://www.w3.org/Graphics/SVG/1.1/DTD/svg11.dtd">
<svg width="100%" height="100%" viewBox="0 0 143 158" version="1.1" xmlns="http://www.w3.org/2000/svg" xmlns:xlink="http://www.w3.org/1999/xlink" xml:space="preserve" xmlns:serif="http://www.serif.com/" style="fill-rule:evenodd;clip-rule:evenodd;stroke-linejoin:round;stroke-miterlimit:2;">
    <g transform="matrix(1,0,0,1,-365.231,-308.927)">
        <g id="Stack" transform="matrix(0.111686,0,1.78618e-33,-0.111686,376.496,440.57)">
            <path d="M210.445,210.359L736.266,210.359L736.266,315.523L210.445,315.523L210.445,210.359ZM681.711,1178.69L597.328,1115.93L911.145,694.016L995.527,756.777L681.711,1178.69ZM420.879,929.949L824.926,593.445L892.227,674.258L488.18,1010.76L420.879,929.949ZM288.973,696.102L765.637,474.109L810.035,569.441L333.371,791.434L288.973,696.102ZM220.887,449.711L735.469,341.562L757.098,444.48L242.516,552.629L220.887,449.711" style="fill:rgb(183,65,14);fill-rule:nonzero;"/>
        </g>
        <g transform="matrix(1,0,0,1,363.73,323.774)">
            <path d="M102.702,119.819C100.42,119.327 98.98,117.075 99.469,114.792C99.956,112.51 102.199,111.057 104.482,111.546C106.764,112.033 108.217,114.29 107.728,116.572C107.239,118.854 104.998,120.308 102.715,119.819L102.702,119.819ZM41.855,119.615C39.573,120.107 37.331,118.653 36.842,116.368C36.355,114.086 37.804,111.831 40.089,111.342C42.371,110.854 44.613,112.308 45.102,114.589C45.59,116.871 44.139,119.126 41.855,119.615ZM25.689,54.272C26.635,56.405 25.673,58.904 23.543,59.855C21.41,60.802 18.924,59.839 17.973,57.709C17.022,55.579 17.989,53.076 20.119,52.125C22.252,51.18 24.738,52.142 25.689,54.272ZM118.678,54.475C119.622,52.343 122.115,51.378 124.248,52.329C126.38,53.275 127.345,55.78 126.394,57.912C125.45,60.045 122.957,61.01 120.824,60.059C118.691,59.113 117.727,56.608 118.678,54.475ZM20.784,65.941L20.731,66.009L29.832,61.961C31.775,61.098 32.658,58.823 31.789,56.88L24.811,46.134L8.47,43.548C7.768,43.662 7.176,44.132 6.908,44.789C6.636,45.448 6.725,46.202 7.139,46.773L11.228,52.451C11.05,53.012 10.877,53.576 10.714,54.149L4.153,56.595C3.487,56.843 2.997,57.419 2.858,58.116C2.72,58.814 2.952,59.529 3.472,60.018L8.607,64.8C8.544,65.377 8.486,65.959 8.438,66.539L2.474,70.234C1.869,70.608 1.501,71.268 1.501,71.986C1.501,72.705 1.869,73.358 2.474,73.725L8.438,77.42C8.486,78.002 8.544,78.582 8.607,79.159L3.472,83.941C2.952,84.426 2.72,85.146 2.858,85.843C2.997,86.543 3.487,87.117 4.153,87.365L10.714,89.81C10.877,90.378 11.05,90.941 11.228,91.508L7.139,97.186C6.723,97.765 6.635,98.516 6.908,99.17C7.181,99.829 7.775,100.299 8.484,100.411L15.398,101.536C15.669,102.061 15.946,102.577 16.231,103.085L13.324,109.456C13.028,110.104 13.089,110.856 13.486,111.453C13.882,112.047 14.558,112.393 15.265,112.365L22.275,112.119C22.641,112.575 23.009,113.022 23.384,113.467L21.781,120.3C21.618,120.993 21.823,121.713 22.328,122.215C22.829,122.722 23.559,122.924 24.257,122.761L31.09,121.158C31.535,121.536 31.984,121.903 32.438,122.264L32.194,129.288C32.166,129.998 32.513,130.673 33.105,131.067C33.695,131.462 34.45,131.522 35.102,131.226L41.473,128.319C41.987,128.604 42.503,128.881 43.022,129.152L44.15,136.066C44.264,136.77 44.734,137.365 45.391,137.642C46.047,137.915 46.804,137.827 47.375,137.413L53.053,133.324C53.614,133.502 54.178,133.675 54.751,133.838L57.197,140.4C57.445,141.066 58.021,141.559 58.718,141.695C59.416,141.836 60.131,141.602 60.62,141.081L65.402,135.946C65.979,136.012 66.561,136.068 67.141,136.119L70.836,142.083C71.208,142.685 71.87,143.056 72.575,143.056C73.28,143.056 73.947,142.686 74.327,142.083L78.022,136.119C78.604,136.068 79.184,136.012 79.761,135.946L84.543,141.081C85.028,141.602 85.748,141.836 86.445,141.695C87.144,141.557 87.72,141.066 87.966,140.4L90.412,133.838C90.979,133.675 91.543,133.502 92.11,133.324L97.788,137.413C98.366,137.827 99.118,137.915 99.772,137.642C100.429,137.372 100.899,136.776 101.013,136.066L102.141,129.152C102.662,128.881 103.179,128.6 103.69,128.319L110.061,131.226C110.709,131.522 111.46,131.462 112.058,131.067C112.65,130.67 112.995,129.998 112.969,129.288L112.725,122.264C113.179,121.901 113.628,121.536 114.071,121.158L120.904,122.761C121.598,122.924 122.331,122.722 122.833,122.215C123.339,121.711 123.544,120.987 123.381,120.3L121.778,113.467C122.153,113.022 122.522,112.575 122.884,112.119L129.907,112.365C130.615,112.393 131.293,112.047 131.687,111.453C132.083,110.861 132.144,110.107 131.847,109.456L128.94,103.085C129.224,102.57 129.502,102.054 129.771,101.536L136.686,100.411C137.39,100.299 137.982,99.829 138.248,99.17C138.52,98.514 138.434,97.757 138.017,97.186L133.928,91.508C134.105,90.947 134.277,90.383 134.442,89.81L141.003,87.365C141.67,87.115 142.162,86.54 142.298,85.843C142.439,85.145 142.205,84.43 141.684,83.941L136.549,79.159C136.611,78.582 136.668,78 136.718,77.42L142.682,73.725C143.287,73.353 143.655,72.691 143.655,71.986C143.655,71.281 143.288,70.614 142.684,70.234L142.642,70.234L136.678,66.539C136.627,65.957 136.57,65.377 136.508,64.8L141.643,60.018C142.165,59.532 142.398,58.812 142.257,58.116C142.12,57.417 141.629,56.841 140.962,56.595L134.401,54.149C134.237,53.582 134.064,53.018 133.887,52.451L137.976,46.773C138.394,46.195 138.479,45.444 138.207,44.789C137.936,44.133 137.342,43.663 136.645,43.548L117.583,45.802L112.597,57.05C111.737,58.992 112.615,61.275 114.553,62.131L124.144,66.396C126.303,78.156 119.996,101.353 109.691,107.976L100.752,106.06L100.678,106.098C98.599,105.653 96.548,106.976 96.113,109.06L93.994,118.949C87.46,121.911 80.137,123.568 72.53,123.568C64.705,123.568 57.315,121.843 50.658,118.746L48.539,108.856C48.093,106.777 46.053,105.446 43.974,105.894L35.239,107.769C27.813,100.237 18.94,76.889 20.731,66.009C20.731,66.009 20.588,67.775 20.784,65.941Z" style="fill:rgb(76,27,6);fill-rule:nonzero;"/>
        </g>
    </g>
</svg>
